<svg width="35" height="35" viewBox="0 0 35 35" version="1.1" xmlns="http://www.w3.org/2000/svg" xmlns:xlink="http://www.w3.org/1999/xlink">
<g id="Canvas" fill="none">
<g id="star2">
<g id="Group">
<g id="Vector">
<path fill-rule="evenodd" clip-rule="evenodd" d="M 17.513 0.501583L 17.5 0.501583C 8.12496 0.501583 0.5 8.12622 0.5 17.5008C 0.5 26.8754 8.12496 34.5 17.5 34.5C 26.875 34.5 34.5 26.8754 34.5 17.5008C 34.5 9.52845 28.9924 2.81533 21.5668 0.989731C 21.4027 0.96379 21.2346 0.999683 21.0952 1.09074C 20.952 1.1843 20.85 1.32902 20.81 1.4953C 20.77 1.66158 20.795 1.83687 20.8799 1.98531C 20.9629 2.13035 21.097 2.23907 21.2557 2.29039C 28.092 3.97081 33.1667 10.1295 33.1667 17.5008C 33.1667 26.1667 26.1663 33.1668 17.5 33.1668C 8.83374 33.1668 1.83333 26.1667 1.83333 17.5008C 1.83333 8.83486 8.83374 1.83481 17.5 1.83481L 17.513 1.83481L 17.526 1.83549C 17.703 1.84471 17.8764 1.78324 18.0081 1.66461L 18.3428 2.03608L 18.0081 1.66461C 18.1397 1.54598 18.2189 1.37992 18.2281 1.20295C 18.2373 1.02598 18.1759 0.852595 18.0572 0.720936C 17.9386 0.589273 17.7725 0.510125 17.5955 0.500907L 17.5955 0.500905C 17.5724 0.499698 17.5492 0.499698 17.526 0.500905L 17.513 0.501583ZM 17.4823 8.27902L 17.4823 8.27897C 17.3641 8.28053 17.2484 8.31352 17.1471 8.37453C 17.0461 8.43534 16.9631 8.52182 16.9065 8.62514C 16.9063 8.62549 16.9061 8.62584 16.9059 8.62619L 14.4402 13.2051L 14.3287 13.4122L 14.0981 13.4583L 8.81376 14.5151C 8.81345 14.5152 8.81314 14.5152 8.81283 14.5153C 8.68999 14.5406 8.57679 14.6001 8.48621 14.6868C 8.3954 14.7738 8.33103 14.8846 8.30054 15.0066C 8.27005 15.1286 8.27466 15.2567 8.31386 15.3761C 8.35292 15.4952 8.42472 15.6008 8.52105 15.6809C 8.52139 15.6812 8.52173 15.6815 8.52207 15.6818L 12.2628 18.7422L 12.4957 18.9327L 12.4364 19.2277L 11.4034 24.3681L 11.4032 24.3691C 11.3783 24.4916 11.3883 24.6186 11.4322 24.7356C 11.476 24.8527 11.5518 24.955 11.651 25.031L 11.3469 25.4279L 11.651 25.031C 11.7502 25.1071 11.8688 25.1537 11.9932 25.1656C 12.1176 25.1775 12.2428 25.1542 12.3545 25.0983C 12.3546 25.0983 12.3546 25.0983 12.3547 25.0983L 14.299 24.1262L 14.3084 24.1215L 14.3084 24.1216C 14.4617 24.0489 14.5815 23.9207 14.6435 23.7629C 14.7055 23.6051 14.705 23.4295 14.6422 23.2721C 14.5794 23.1146 14.4589 22.9869 14.3053 22.9151C 14.1517 22.8433 13.9765 22.8327 13.8153 22.8855L 13.0009 23.1522L 13.1695 22.3119L 13.8744 18.7999L 13.8744 18.7996C 13.8983 18.6813 13.8895 18.5587 13.8492 18.445C 13.8089 18.3314 13.7385 18.2309 13.6457 18.1541C 13.6455 18.154 13.6454 18.1539 13.6453 18.1537L 11.2766 16.2103L 10.4596 15.54L 11.496 15.3334L 14.911 14.6529L 14.9143 14.6522L 14.9143 14.6522C 15.0105 14.6338 15.1015 14.5943 15.1807 14.5367C 15.2594 14.4794 15.3247 14.4057 15.3718 14.3205C 15.3721 14.32 15.3724 14.3194 15.3727 14.3189L 17.0598 11.1875L 17.5 10.3705L 17.9402 11.1875L 19.6273 14.3189C 19.6276 14.3195 19.6279 14.32 19.6282 14.3206C 19.6754 14.4057 19.7406 14.4795 19.8193 14.5367C 19.8985 14.5943 19.9895 14.6338 20.0857 14.6522L 20.089 14.6529L 23.504 15.3334L 24.5404 15.54L 23.7234 16.2103L 21.3547 18.1537C 21.3546 18.1539 21.3545 18.154 21.3543 18.1541C 21.2615 18.2309 21.1911 18.3314 21.1508 18.445C 21.1105 18.5587 21.1017 18.6813 21.1256 18.7996L 21.1258 18.8009L 21.8185 22.2886L 22.0174 23.2896L 21.1045 22.8332L 17.799 21.1805C 17.6404 21.1012 17.4568 21.0882 17.2886 21.1442C 17.1204 21.2003 16.9814 21.3209 16.9021 21.4794C 16.8228 21.638 16.8097 21.8216 16.8658 21.9898C 16.9219 22.1579 17.0424 22.297 17.201 22.3762L 22.6453 25.0983C 22.6454 25.0983 22.6454 25.0983 22.6455 25.0983C 22.7572 25.1542 22.8825 25.1775 23.0068 25.1656C 23.1312 25.1537 23.2498 25.1071 23.349 25.031L 23.6531 25.4279L 23.349 25.031C 23.4482 24.955 23.524 24.8527 23.5678 24.7356L 24.0361 24.9109L 23.5678 24.7356C 23.6117 24.6186 23.6217 24.4916 23.5968 24.3691L 23.5966 24.3681L 22.5636 19.2277L 22.5043 18.9327L 22.7372 18.7422L 26.4779 15.6818C 26.4783 15.6815 26.4786 15.6812 26.4789 15.6809C 26.5753 15.6008 26.6471 15.4952 26.6861 15.3761C 26.7253 15.2567 26.73 15.1286 26.6995 15.0066C 26.669 14.8846 26.6046 14.7738 26.5138 14.6868C 26.4232 14.6001 26.3101 14.5407 26.1873 14.5153C 26.1869 14.5153 26.1866 14.5152 26.1862 14.5151L 20.9019 13.4583L 20.6713 13.4122L 20.5598 13.2051L 18.094 8.62604C 18.0938 8.62569 18.0937 8.62534 18.0935 8.62499C 18.0346 8.5175 17.9472 8.4283 17.8409 8.36721C 17.7343 8.30593 17.6128 8.27534 17.4898 8.27881L 17.4823 8.27902Z" fill="#024583"/>
<path fill-rule="evenodd" clip-rule="evenodd" d="M 17.513 0.501583L 17.5 0.501583C 8.12496 0.501583 0.5 8.12622 0.5 17.5008C 0.5 26.8754 8.12496 34.5 17.5 34.5C 26.875 34.5 34.5 26.8754 34.5 17.5008C 34.5 9.52845 28.9924 2.81533 21.5668 0.989731C 21.4027 0.96379 21.2346 0.999683 21.0952 1.09074C 20.952 1.1843 20.85 1.32902 20.81 1.4953C 20.77 1.66158 20.795 1.83687 20.8799 1.98531C 20.9629 2.13035 21.097 2.23907 21.2557 2.29039C 28.092 3.97081 33.1667 10.1295 33.1667 17.5008C 33.1667 26.1667 26.1663 33.1668 17.5 33.1668C 8.83374 33.1668 1.83333 26.1667 1.83333 17.5008C 1.83333 8.83486 8.83374 1.83481 17.5 1.83481L 17.513 1.83481L 17.526 1.83549C 17.703 1.84471 17.8764 1.78324 18.0081 1.66461L 18.3428 2.03608L 18.0081 1.66461C 18.1397 1.54598 18.2189 1.37992 18.2281 1.20295C 18.2373 1.02598 18.1759 0.852595 18.0572 0.720936C 17.9386 0.589273 17.7725 0.510125 17.5955 0.500907L 17.5955 0.500905C 17.5724 0.499698 17.5492 0.499698 17.526 0.500905L 17.513 0.501583ZM 17.4823 8.27902L 17.4823 8.27897C 17.3641 8.28053 17.2484 8.31352 17.1471 8.37453C 17.0461 8.43534 16.9631 8.52182 16.9065 8.62514C 16.9063 8.62549 16.9061 8.62584 16.9059 8.62619L 14.4402 13.2051L 14.3287 13.4122L 14.0981 13.4583L 8.81376 14.5151C 8.81345 14.5152 8.81314 14.5152 8.81283 14.5153C 8.68999 14.5406 8.57679 14.6001 8.48621 14.6868C 8.3954 14.7738 8.33103 14.8846 8.30054 15.0066C 8.27005 15.1286 8.27466 15.2567 8.31386 15.3761C 8.35292 15.4952 8.42472 15.6008 8.52105 15.6809C 8.52139 15.6812 8.52173 15.6815 8.52207 15.6818L 12.2628 18.7422L 12.4957 18.9327L 12.4364 19.2277L 11.4034 24.3681L 11.4032 24.3691C 11.3783 24.4916 11.3883 24.6186 11.4322 24.7356C 11.476 24.8527 11.5518 24.955 11.651 25.031L 11.3469 25.4279L 11.651 25.031C 11.7502 25.1071 11.8688 25.1537 11.9932 25.1656C 12.1176 25.1775 12.2428 25.1542 12.3545 25.0983C 12.3546 25.0983 12.3546 25.0983 12.3547 25.0983L 14.299 24.1262L 14.3084 24.1215L 14.3084 24.1216C 14.4617 24.0489 14.5815 23.9207 14.6435 23.7629C 14.7055 23.6051 14.705 23.4295 14.6422 23.2721C 14.5794 23.1146 14.4589 22.9869 14.3053 22.9151C 14.1517 22.8433 13.9765 22.8327 13.8153 22.8855L 13.0009 23.1522L 13.1695 22.3119L 13.8744 18.7999L 13.8744 18.7996C 13.8983 18.6813 13.8895 18.5587 13.8492 18.445C 13.8089 18.3314 13.7385 18.2309 13.6457 18.1541C 13.6455 18.154 13.6454 18.1539 13.6453 18.1537L 11.2766 16.2103L 10.4596 15.54L 11.496 15.3334L 14.911 14.6529L 14.9143 14.6522L 14.9143 14.6522C 15.0105 14.6338 15.1015 14.5943 15.1807 14.5367C 15.2594 14.4794 15.3247 14.4057 15.3718 14.3205C 15.3721 14.32 15.3724 14.3194 15.3727 14.3189L 17.0598 11.1875L 17.5 10.3705L 17.9402 11.1875L 19.6273 14.3189C 19.6276 14.3195 19.6279 14.32 19.6282 14.3206C 19.6754 14.4057 19.7406 14.4795 19.8193 14.5367C 19.8985 14.5943 19.9895 14.6338 20.0857 14.6522L 20.089 14.6529L 23.504 15.3334L 24.5404 15.54L 23.7234 16.2103L 21.3547 18.1537C 21.3546 18.1539 21.3545 18.154 21.3543 18.1541C 21.2615 18.2309 21.1911 18.3314 21.1508 18.445C 21.1105 18.5587 21.1017 18.6813 21.1256 18.7996L 21.1258 18.8009L 21.8185 22.2886L 22.0174 23.2896L 21.1045 22.8332L 17.799 21.1805C 17.6404 21.1012 17.4568 21.0882 17.2886 21.1442C 17.1204 21.2003 16.9814 21.3209 16.9021 21.4794C 16.8228 21.638 16.8097 21.8216 16.8658 21.9898C 16.9219 22.1579 17.0424 22.297 17.201 22.3762L 22.6453 25.0983C 22.6454 25.0983 22.6454 25.0983 22.6455 25.0983C 22.7572 25.1542 22.8825 25.1775 23.0068 25.1656C 23.1312 25.1537 23.2498 25.1071 23.349 25.031L 23.6531 25.4279L 23.349 25.031C 23.4482 24.955 23.524 24.8527 23.5678 24.7356L 24.0361 24.9109L 23.5678 24.7356C 23.6117 24.6186 23.6217 24.4916 23.5968 24.3691L 23.5966 24.3681L 22.5636 19.2277L 22.5043 18.9327L 22.7372 18.7422L 26.4779 15.6818C 26.4783 15.6815 26.4786 15.6812 26.4789 15.6809C 26.5753 15.6008 26.6471 15.4952 26.6861 15.3761C 26.7253 15.2567 26.73 15.1286 26.6995 15.0066C 26.669 14.8846 26.6046 14.7738 26.5138 14.6868C 26.4232 14.6001 26.3101 14.5407 26.1873 14.5153C 26.1869 14.5153 26.1866 14.5152 26.1862 14.5151L 20.9019 13.4583L 20.6713 13.4122L 20.5598 13.2051L 18.094 8.62604C 18.0938 8.62569 18.0937 8.62534 18.0935 8.62499C 18.0346 8.5175 17.9472 8.4283 17.8409 8.36721C 17.7343 8.30593 17.6128 8.27534 17.4898 8.27881L 17.4823 8.27902Z" stroke-miterlimit="8" stroke="#024583"/>
</g>
</g>
</g>
</g>
</svg>

