<svg width="35" height="35" viewBox="0 0 35 35" version="1.1" xmlns="http://www.w3.org/2000/svg" xmlns:xlink="http://www.w3.org/1999/xlink">
<g id="Canvas" fill="none">
<g id="Vector">
<path d="M 18.3979 27.3466L 18.3979 28.2224C 18.3979 28.527 18.178 28.7555 17.8848 28.7555L 16.5654 28.7555C 16.2723 28.7555 16.0524 28.527 16.0524 28.2224L 16.0524 27.3466C 16.0524 27.042 16.2723 26.8136 16.5654 26.8136L 17.8848 26.8136C 18.178 26.8136 18.3979 27.042 18.3979 27.3466ZM 18.5812 24.7574C 18.6911 24.529 18.8743 24.3005 19.2042 24.1101C 19.7539 23.8055 20.1937 23.4248 20.5236 22.8917C 20.8901 22.3967 21.0366 21.8256 21.0366 21.2163C 21.0366 20.2263 20.7068 19.4267 20.0838 18.8556C 19.4607 18.2845 18.5812 17.9798 17.445 17.9798C 16.4188 17.9798 15.5759 18.2464 14.9529 18.7414C 14.4031 19.1983 14.0733 19.8075 14.0366 20.6452C 14.0366 20.8356 14.1832 20.9879 14.3665 21.026L 15.8691 21.064C 16.1257 21.064 16.3456 20.9117 16.4188 20.6833C 16.4555 20.4929 16.5654 20.3406 16.712 20.1883C 16.9319 19.9979 17.1885 19.8837 17.4817 19.8837C 17.8848 19.8837 18.178 19.9979 18.3613 20.2644C 18.5812 20.4929 18.6911 20.8356 18.6911 21.2544C 18.6911 21.6352 18.6178 21.9779 18.4346 22.2825C 18.2513 22.5871 17.9948 22.8536 17.7016 23.044C 17.0785 23.5009 16.6754 23.8817 16.4555 24.2244C 16.2723 24.4909 16.1623 24.8717 16.1257 25.3286C 16.089 25.557 16.2723 25.7474 16.4921 25.7474L 18.1414 25.7474C 18.3246 25.7474 18.4712 25.5951 18.5079 25.4047C 18.4346 25.1382 18.5079 24.9478 18.5812 24.7574ZM 23.3089 11.9257C 23.3089 11.9257 23.2723 11.088 22.466 10.7072C 21.6597 10.3265 21.2565 10.2503 21.2565 10.2123C 21.2199 10.2123 19.9372 9.83149 19.3141 9.4888L 19.2775 9.4888C 19.1309 9.41265 19.0576 9.26034 19.0576 9.10804L 19.0576 8.49881L 19.0576 8.30843C 19.0576 8.30843 20.8534 8.34651 21.6963 7.47075C 21.6963 7.47075 20.4503 7.08999 20.6702 4.76733C 20.8901 2.44466 20.377 0.388538 18.5812 0.57892C 18.5812 0.57892 17.8115 -0.411067 16.2356 0.198155C 15.6859 0.426614 14.2565 0.959684 14.3298 4.1581C 14.4031 7.3946 13.2304 7.3946 13.2304 7.3946C 13.2304 7.3946 13.8534 8.30843 15.9058 8.30843L 15.9058 8.49881L 15.9058 9.10804C 15.9058 9.26034 15.8325 9.41265 15.6859 9.4888C 15.6859 9.4888 15.6492 9.4888 15.6492 9.52688C 15.0262 9.86957 13.7435 10.2123 13.7068 10.2503C 13.6702 10.2503 13.267 10.3265 12.4974 10.7453C 11.6911 11.1261 11.6545 11.9638 11.6545 11.9638L 11.6545 13.8676L 23.2723 13.8676L 23.2723 11.9257L 23.3089 11.9257ZM 34.1937 31.8777C 33.3874 31.497 32.9843 31.4208 32.9843 31.3827C 32.9476 31.3827 31.6649 31.002 31.0419 30.6593L 31.0052 30.6212C 30.8586 30.5451 30.7853 30.3928 30.7853 30.2404L 30.7853 29.6312L 30.7853 29.4408C 30.7853 29.4408 32.5812 29.4789 33.4241 28.6032C 33.4241 28.6032 32.178 28.2224 32.3979 25.8997C 32.6178 23.5771 32.1047 21.5209 30.3089 21.7113C 30.3089 21.7113 29.5393 20.7213 27.9634 21.3306C 27.4136 21.559 25.9843 22.0921 26.0576 25.2905C 26.1309 28.527 24.9581 28.527 24.9581 28.527C 24.9581 28.527 25.5812 29.4408 27.6335 29.4408L 27.6335 29.6312L 27.6335 30.2404C 27.6335 30.3928 27.5602 30.5451 27.4136 30.6212C 27.4136 30.6212 27.377 30.6212 27.377 30.6593C 26.7539 31.002 25.4712 31.3447 25.4346 31.3827C 25.3979 31.3827 24.9948 31.4589 24.2251 31.8777C 23.4188 32.2585 23.3822 33.0962 23.3822 33.0962L 23.3822 35L 35 35L 35 33.0962C 35 33.0962 34.9634 32.2585 34.1937 31.8777ZM 11.6545 33.0962C 11.6545 33.0962 11.6178 32.2585 10.8115 31.8777C 10.0052 31.497 9.60209 31.4208 9.60209 31.3827C 9.56544 31.3827 8.28272 31.002 7.65969 30.6593L 7.62304 30.6212C 7.47644 30.5451 7.40314 30.3928 7.40314 30.2404L 7.40314 29.6312L 7.40314 29.4408C 7.40314 29.4408 9.19895 29.4789 10.0419 28.6032C 10.0419 28.6032 8.79581 28.2224 9.01571 25.8997C 9.2356 23.5771 8.72251 21.5209 6.9267 21.7113C 6.9267 21.7113 6.15707 20.7213 4.58115 21.3306C 4.03141 21.559 2.60209 22.0921 2.67539 25.2905C 2.74869 28.527 1.57592 28.527 1.57592 28.527C 1.57592 28.527 2.19895 29.4408 4.25131 29.4408L 4.25131 29.6312L 4.25131 30.2404C 4.25131 30.3928 4.17801 30.5451 4.03141 30.6212C 4.03141 30.6212 3.99476 30.6212 3.99476 30.6593C 3.37173 31.002 2.08901 31.3447 2.05236 31.3827C 2.01571 31.3827 1.61257 31.4589 0.842932 31.8777C 0.0366492 32.2585 1.74757e-08 33.0962 1.74757e-08 33.0962L 1.74757e-08 35L 11.6545 35L 11.6545 33.0962Z" fill="#024583"/>
</g>
</g>
</svg>

